# xmcd
#
# Track frame offsets:
# 150
# 18302
# 45004
# 62181
# 80633
# 85435
# 103662
# 121289
# 145591
# 159918
# 180095
# 199897
# 204324
# 223826
# 249028
#
# Disc length: 3627 seconds
#
#
# Revision: 0
# Processed by: cddbd v1.4PL0 Copyright (c) Steve Scherf et al.
# Submitted via: FreeRIP 2.51 
#
DISCID=bc0e290f
DTITLE=Digital Underground - Future Rhythm
DYEAR=1996
DGENRE=Hip-Hop
TTITLE0=Walk Real Cool
TTITLE1=Glooty-Us-Maximus
TTITLE2=Oregano Flow (Gumbo Soup Mix)
TTITLE3=Fool Get A Clue
TTITLE4=Rumpty Rump
TTITLE5=Food Fight
TTITLE6=Future Rhythm
TTITLE7=Hokis Pokis (A Classic Case)
TTITLE8=We Got More
TTITLE9=Hella Bump
TTITLE10=Stylin'
TTITLE11=Midnite Snack
TTITLE12=Oregano Flow (Hot Sauce Mix)
TTITLE13=Want It All
TTITLE14=Duck Season (Vocal)
EXTD=
EXTT0=
EXTT1=
EXTT2=
EXTT3=
EXTT4=
EXTT5=
EXTT6=
EXTT7=
EXTT8=
EXTT9=
EXTT10=
EXTT11=
EXTT12=
EXTT13=
EXTT14=
PLAYORDER=
